<svg xmlns="http://www.w3.org/2000/svg" width="119.031" height="26" viewBox="0 0 119.031 26">
  <metadata><?xpacket begin="﻿" id="W5M0MpCehiHzreSzNTczkc9d"?>
<x:xmpmeta xmlns:x="adobe:ns:meta/" x:xmptk="Adobe XMP Core 5.6-c138 79.159824, 2016/09/14-01:09:01        ">
   <rdf:RDF xmlns:rdf="http://www.w3.org/1999/02/22-rdf-syntax-ns#">
      <rdf:Description rdf:about=""/>
   </rdf:RDF>
</x:xmpmeta>
                                                                                                    
                                                                                                    
                                                                                                    
                                                                                                    
                                                                                                    
                                                                                                    
                                                                                                    
                                                                                                    
                                                                                                    
                                                                                                    
                                                                                                    
                                                                                                    
                                                                                                    
                                                                                                    
                                                                                                    
                                                                                                    
                                                                                                    
                                                                                                    
                                                                                                    
                                                                                                    
                           
<?xpacket end="w"?></metadata>
<defs>
    <style>
      .cls-1 {
        fill: #383c4a;
        fill-rule: evenodd;
      }
    </style>
  </defs>
  <path id="ORANI" class="cls-1" d="M309.59,687.006a14.321,14.321,0,0,0-6.948,1.686,12.5,12.5,0,0,0-6.661,11.221,12.85,12.85,0,0,0,1.778,6.687,12.624,12.624,0,0,0,4.883,4.7,14.963,14.963,0,0,0,13.9-.018,12.718,12.718,0,0,0,6.66-11.366,12.5,12.5,0,0,0-1.777-6.6,12.636,12.636,0,0,0-4.883-4.624,14.327,14.327,0,0,0-6.948-1.686h0Zm0.071,5.557a6.391,6.391,0,0,1,3.43.968,6.819,6.819,0,0,1,2.459,2.672,8.339,8.339,0,0,1,0,7.529,6.95,6.95,0,0,1-2.459,2.689,6.3,6.3,0,0,1-3.43.986,6.391,6.391,0,0,1-3.447-.986,7.309,7.309,0,0,1-2.531-2.689,7.993,7.993,0,0,1-.018-7.529,6.986,6.986,0,0,1,2.531-2.672,6.568,6.568,0,0,1,3.465-.968h0Zm39.353,19.971-5.242-8.211a7.936,7.936,0,0,0,3.339-3.209,9.9,9.9,0,0,0,1.149-4.894,8.037,8.037,0,0,0-2.747-6.507q-2.746-2.311-7.737-2.312H326.465v25.133h6.571v-6.956h4.883l3.663,6.956h7.432Zm-15.978-19.9h4.776a4.484,4.484,0,0,1,3.1.986,3.592,3.592,0,0,1,1.1,2.814,3.743,3.743,0,0,1-1.1,2.905,4.431,4.431,0,0,1-3.1,1h-4.776v-7.708Zm44.919,19.9L367.4,687.4h-6.75L349.84,712.534h6.751l1.759-4.446h10.88l1.723,4.446h7Zm-14.111-18.429,3.447,8.964h-6.966Zm33.608,8.426L386,687.4h-5.781v25.133h6.14V697.511l11.418,15.023h5.745V687.4h-6.1Zm10.987,10h6.571V687.4h-6.571v25.133Z" transform="translate(-295.969 -687)"/>
</svg>
